<?xml version="1.0" encoding="UTF-8"?><svg id="Layer_2" xmlns="http://www.w3.org/2000/svg" viewBox="0 0 71 57"><defs><style>.cls-1{fill:#fff;}</style></defs><g id="Layer_1-2"><path class="cls-1" d="m39.05,16.03h-7.1v-7.12h7.1v7.12Zm0,16.03h-7.1v-7.12h7.1v7.12Zm0,16.03h-7.1v-7.12h7.1v7.12Zm31.95-26.72V7.12c0-3.95-3.19-7.12-7.1-7.12H7.1c-1.88,0-3.69.75-5.02,2.09C.75,3.42,0,5.24,0,7.12v14.25c3.94,0,7.1,3.21,7.1,7.12,0,1.89-.75,3.7-2.08,5.04-1.33,1.34-3.14,2.09-5.02,2.09v14.25c0,1.89.75,3.7,2.08,5.04,1.33,1.34,3.14,2.09,5.02,2.09h56.8c1.88,0,3.69-.75,5.02-2.09,1.33-1.34,2.08-3.15,2.08-5.04v-14.25c-1.88,0-3.69-.75-5.02-2.09-1.33-1.34-2.08-3.15-2.08-5.04s.75-3.7,2.08-5.04c1.33-1.34,3.14-2.09,5.02-2.09Z"/></g></svg>