<?xml version="1.0" encoding="UTF-8"?><svg id="Layer_2" xmlns="http://www.w3.org/2000/svg" viewBox="0 0 57 81"><defs><style>.cls-1{fill:#fff;}</style></defs><g id="Layer_1-2"><path class="cls-1" d="m28.5,38.47c-2.7,0-5.29-1.07-7.2-2.97-1.91-1.9-2.98-4.47-2.98-7.16s1.07-5.26,2.98-7.16c1.91-1.9,4.5-2.97,7.2-2.97s5.29,1.07,7.2,2.97c1.91,1.9,2.98,4.47,2.98,7.16,0,1.33-.26,2.65-.77,3.87-.51,1.23-1.26,2.34-2.21,3.28-.95.94-2.07,1.69-3.3,2.19-1.23.51-2.56.77-3.9.77ZM28.5,0c-7.56,0-14.81,2.99-20.15,8.3C3,13.62,0,20.83,0,28.35c0,21.26,28.5,52.65,28.5,52.65,0,0,28.5-31.39,28.5-52.65,0-7.52-3-14.73-8.35-20.05C43.31,2.99,36.06,0,28.5,0Z"/></g></svg>